# xmcd CD database file
#
# Track frame offsets:
#	225
#	15171
#	29504
#	49279
#	70957
#	87572
#	100868
#	119738
#	137532
#	147829
#	164681
#	174511
#	190566
#	199270
#	214576
#	231593
#	248549
#	252643
#	265922
#	281751
#
# Disc length: 4062 seconds
#
# Revision: 0
# Processed by: cddbd v1.5PL3 Copyright (c) Steve Scherf et al.
# Submitted via: CDex 1.40Release
#
DISCID=300fdb14
DTITLE=Mississippi John Hurt - Lonesome Blues
DYEAR=2003
DGENRE=Blues
TTITLE0=Baby, What's Wrong With You
TTITLE1=Candy Man
TTITLE2=Frankie And Albert
TTITLE3=Monday Mornin' Blues
TTITLE4=Make Me A Pallet On Your Floor
TTITLE5=Talking Casey
TTITLE6=Trouble I Had All My Days
TTITLE7=Casey Jones Talkin' Casey
TTITLE8=My Creole Belle
TTITLE9=Lonesome Blues
TTITLE10=Shake That Thing
TTITLE11=Coffee Blues
TTITLE12=I'm Satisfied
TTITLE13=Hard Times In The Old Town Tonight
TTITLE14=Here I Am, Oh Lord Send Me
TTITLE15=Nobody's Business But Mine
TTITLE16=C-H-I-C-K-E-N Blues
TTITLE17=Spike Drivers Blues
TTITLE18=Salty Dog
TTITLE19=The Angels Laid Him Away
EXTD=YEAR: 2003 ID3G: 0
EXTT0=
EXTT1=
EXTT2=
EXTT3=
EXTT4=
EXTT5=
EXTT6=
EXTT7=
EXTT8=
EXTT9=
EXTT10=
EXTT11=
EXTT12=
EXTT13=
EXTT14=
EXTT15=
EXTT16=
EXTT17=
EXTT18=
EXTT19=
PLAYORDER=
